# xmcd CD database file
#
# Track frame offsets:
#	150
#	6692
#	20615
#	39122
#	56795
#	76630
#	92517
#	109587
#	132032
#	152067
#	174535
#	194437
#	219965
#	240925
#	261182
#	297300
#
# Disc length: 4440 seconds
#
# Revision: 0
# Processed by: cddbd v1.5.1PL0 Copyright (c) Steve Scherf et al.
# Submitted via: CDex 1.51
#
DISCID=cc115610
DTITLE=倖田來未 - secret
DYEAR=2005
DGENRE=Pop
TTITLE0=Intro〜Get down〜
TTITLE1=キューティーハニー
TTITLE2=Hot Stuff feat.KM-MARKIT
TTITLE3=Selfish
TTITLE4=hands
TTITLE5=Hearty…
TTITLE6=SHAKE IT
TTITLE7=奇跡
TTITLE8=Trust you
TTITLE9=Chase
TTITLE10=LOVE HOLIC
TTITLE11=24
TTITLE12=Let's Party
TTITLE13=Believe
TTITLE14=Through the sky
TTITLE15=CCCD
EXTD=YEAR: 2005
EXTT0=
EXTT1=
EXTT2=
EXTT3=
EXTT4=
EXTT5=
EXTT6=
EXTT7=
EXTT8=
EXTT9=
EXTT10=
EXTT11=
EXTT12=
EXTT13=
EXTT14=
EXTT15=
PLAYORDER=
